#!OML:ASF I:\Actors\actors\Patient Classification 2\Patient 1\Session 1\actor1.ASF
:FULLY-SPECIFIED
:DEGREES
853
root -0.556258 18.7013 5.39808 -0.0660261 -6.51713 2.74895
lowerback 6.40869 -0.354551 -5.1191
upperback -3.69134 -0.966803 0.0533535
thorax -7.4075 -0.216419 3.05497
lowerneck -14.9933 1.0088 -0.333144
upperneck 18.4093 1.45283 0.0555486
head 8.18078 0.667423 0.238161
rclavicle 1.83255e-015 6.26172e-015
rhumerus -49.9923 14.3572 -94.6822
rradius 88.6542
rwrist -54.7703
rhand -16.8936 -56.8874
rfingers 7.12502
rthumb 9.33803 993.339
lclavicle 1.83255e-015 6.26172e-015
lhumerus -34.1526 -20.822 103.591
lradius 77.3712
lwrist 78.9712
lhand -37.567 -11.1781
lfingers 7.12502
lthumb -10.6217 18.5334
rfemur 0 0 0
rtibia 0
rfoot 0 0
rtoes 0
lfemur -0.595148 -5.22277 -18.1981
ltibia 17.2265
lfoot -22.1088 17.573
ltoes -53.6581
854
root -0.563451 18.7021 5.3891 2.09273e-005 -6.72122 2.68781
lowerback 6.38572 -0.252109 -5.18595
upperback -3.63814 -0.835601 0.0147991
thorax -7.34921 -0.15243 3.03478
lowerneck -15.0179 0.9409 -0.347342
upperneck 18.3868 1.32329 0.242285
head 8.17635 0.624192 0.2881
rclavicle 1.03306e-014 6.95746e-016
rhumerus -50.0258 14.2596 -94.7452
rradius 86.8413
rwrist -53.4636
rhand -16.4723 -56.2015
rfingers 7.12502
rthumb 9.74449 994.044
lclavicle 1.03306e-014 6.95746e-016
lhumerus -35.372 -19.8977 103.146
lradius 76.5274
lwrist 78.511
lhand -37.4921 -11.186
lfingers 7.12502
lthumb -10.5494 18.5292
rfemur 0 0 0
rtibia 0
rfoot 0 0
rtoes 0
lfemur -0.6598 -5.26968 -18.1266
ltibia 17.2492
lfoot -22.1993 17.7768
ltoes -53.6392
855
root -0.565436 18.7021 5.37916 0.0210422 -7.04933 2.62791
lowerback 6.44846 -0.105526 -5.21681
upperback -3.59989 -0.646446 -0.00762668
thorax -7.36213 -0.059076 3.00548
lowerneck -14.9742 0.859459 -0.425763
upperneck 18.3524 1.1769 0.492598
head 8.15524 0.574983 0.367466
rclavicle 1.11475e-014 7.25564e-015
rhumerus -50.1082 14.2266 -94.7855
rradius 85.1239
rwrist -52.3842
rhand -16.5229 -55.5152
rfingers 7.12502
rthumb 9.69571 994.728
lclavicle 1.11475e-014 7.25564e-015
lhumerus -36.6179 -18.9723 102.718
lradius 75.8219
lwrist 78.2364
lhand -37.5017 -11.2402
lfingers 7.12502
lthumb -10.5586 18.4746
rfemur 0 0 0
rtibia 0
rfoot 0 0
rtoes 0
lfemur -0.669594 -5.21856 -18.0848
ltibia 17.2829
lfoot -22.3149 18.0036
ltoes -53.6293
856
root -0.561099 18.7036 5.36507 0.0705983 -7.29492 2.55356
lowerback 6.58647 0.0360804 -5.15743
upperback -3.59661 -0.462 -0.0452067
thorax -7.45586 0.0298477 2.91043
lowerneck -14.9706 0.739934 -0.482403
upperneck 18.3654 0.983782 0.69147
head 8.1585 0.499703 0.421304
rclavicle -7.84268e-016 1.18774e-014
rhumerus -50.1796 14.1066 -94.8319
rradius 83.4306
rwrist -51.3868
rhand -16.1309 -55.2046
rfingers 7.12502
rthumb 10.0738 995.056
lclavicle -7.84268e-016 1.18774e-014
lhumerus -37.8048 -17.9935 102.266
lradius 75.0686
lwrist 77.4408
lhand -37.2996 -10.8871
lfingers 7.12502
lthumb -10.3637 18.8375
rfemur 0 0 0
rtibia 0
rfoot 0 0
rtoes 0
lfemur -0.749969 -5.29105 -18.054
ltibia 17.3117
lfoot -22.3827 18.3008
ltoes -53.6677
857
root -0.561542 18.7049 5.35596 0.111825 -7.42506 2.47965
lowerback 6.6428 0.155417 -5.13331
upperback -3.54942 -0.305826 -0.103985
thorax -7.45201 0.102557 2.81497
lowerneck -15.0826 0.616899 -0.458872
upperneck 18.4148 0.772329 0.864288
head 8.19584 0.418852 0.45188
rclavicle 8.04457e-016 1.29191e-014
rhumerus -50.1893 13.7812 -94.8955
rradius 81.7096
rwrist -50.0597
rhand -15.1491 -55.1608
rfingers 7.12502
rthumb 11.021 995.149
lclavicle 8.04457e-016 1.29191e-014
lhumerus -38.8819 -17.0137 101.756
lradius 74.2712
lwrist 76.4
lhand -37.0196 -10.6581
lfingers 7.12502
lthumb -10.0936 19.0798
rfemur 0 0 0
rtibia 0
rfoot 0 0
rtoes 0
lfemur -0.81036 -5.41048 -17.9929
ltibia 17.331
lfoot -22.5056 18.4875
ltoes -53.6382
